<svg width="63" height="70" viewBox="0 0 63 70" fill="none" xmlns="http://www.w3.org/2000/svg">
<path d="M35.4 69.9C27.9333 69.9 21.5333 68.5667 16.2 65.9C10.9333 63.1667 6.9 59.3333 4.1 54.4C1.36667 49.4 3.72529e-08 43.5333 3.72529e-08 36.8C3.72529e-08 30.3333 1.03333 24.8 3.1 20.2C5.23333 15.5333 8.03333 11.7333 11.5 8.8C14.9667 5.8 18.8 3.6 23 2.2C27.2 0.733329 31.4333 -4.76837e-06 35.7 -4.76837e-06C41.3 -4.76837e-06 46.1 0.83333 50.1 2.5C54.1 4.1 57.1667 6.2 59.3 8.8C61.4333 11.4 62.5 14.1 62.5 16.9C62.5 19.9 61.9333 22.2333 60.8 23.9C59.7333 25.5667 58.3333 26.7333 56.6 27.4C54.9333 28.0667 53.2 28.4 51.4 28.4C49.1333 28.4 47.3333 28.1667 46 27.7C44.7333 27.1667 43.4333 26.6667 42.1 26.2C40.7667 25.7333 38.9667 25.5 36.7 25.5C32.3667 25.5 28.9 26.8 26.3 29.4C23.7667 32 22.5 35.7333 22.5 40.6C22.5 43.4667 23.1 45.8333 24.3 47.7C25.5 49.5667 27.0667 50.9667 29 51.9C31 52.8333 33.1333 53.3 35.4 53.3C37.6667 53.3 39.5333 53.0333 41 52.5C42.5333 51.9 43.6667 51.2667 44.4 50.6C45.1333 49.9333 45.5 49.4333 45.5 49.1C41.0333 49.1 37.4333 48.6 34.7 47.6C31.9667 46.5333 30.6 44.5 30.6 41.5C30.6 38.9667 31.5 36.8667 33.3 35.2C35.1 33.4667 38.4333 32.6 43.3 32.6C48.0333 32.6 51.7333 33.1667 54.4 34.3C57.1333 35.3667 59.0333 37.0667 60.1 39.4C61.2333 41.7333 61.8 44.7667 61.8 48.5C61.8 52.5 60.6 56.1333 58.2 59.4C55.8 62.6667 52.6 65.2667 48.6 67.2C44.6 69.0667 40.2 69.9667 35.4 69.9Z" fill="#F59E0B"/>
</svg>
